<svg width="64" height="64" viewBox="0 0 64 64" fill="none" xmlns="http://www.w3.org/2000/svg">
<path d="M36.6 41C36.6 41 37.1 41.2 37.8 41.6C38.7 42.2 39.6 43.3 39.6 45C39.6 47 37.9 48.9 35.6 48.9C33.5 48.9 31.6 47.2 31.6 45C31.6 41.6 34.9 41 34.9 41C34.9 41 33.1 41.1 30.6 44.1C28.6 46.5 25.7 51.3 26 50.3C26.4 49.3 38.7 21.1 39 20.3C39.3 19.5 34.3 22.5 29.7 24.6C27.6 25.6 23.2 26.6 23.2 30.2C23.2 32.4 25 34.2 27.2 34.2C29.4 34.2 31.2 32.4 31.2 30.2C31.2 27.9 29.3 26.2 27.3 26.2C23.9 26.2 8 26.2 8 26.2L31.5 7.09998L55 26.3H45.5V58H17.5V30.2" stroke="#D5B5E7" stroke-width="1.684" stroke-miterlimit="10"/>
</svg>
