<svg width="64" height="64" viewBox="0 0 64 64" fill="none" xmlns="http://www.w3.org/2000/svg">
<path d="M6 27.3001H52.9V21.3001H6V19.0001C6 15.9001 7.3 14.6001 10.4 14.6001H53.7C56.8 14.6001 58.1 15.9001 58.1 19.0001V45.5001C58.1 48.6001 56.8 49.9001 53.7 49.9001H10.4C7.3 49.9001 6 48.6001 6 45.5001V35.8001V34.7001C6 33.5001 7 32.5001 8.2 32.5001H19.5C20.7 32.5001 21.7 33.5001 21.7 34.7001V40.8001C21.7 42.0001 20.7 43.0001 19.5 43.0001H12.6C11.4 43.0001 10.4 42.0001 10.4 40.8001V36.5001" stroke="#9DE5EC" stroke-width="1.6414" stroke-miterlimit="10"/>
</svg>
