<svg width="64" height="64" viewBox="0 0 64 64" fill="none" xmlns="http://www.w3.org/2000/svg">
<path d="M34.9004 37.4V26.6H30.9004L38.3004 19.2L45.7004 26.6H41.7004V36.5999C41.7004 36.5999 45.8004 36.5999 46.8004 36.5999C52.7004 36.5999 57.5004 31.8 57.5004 25.9C57.5004 20 52.7004 15.2 46.8004 15.2C46.8004 15.2 44.3004 15.4 43.2004 15.8C42.5004 12.1 39.3004 9.19995 35.3004 9.19995C31.7004 9.19995 28.7004 11.6 27.7004 14.8C26.3004 14 24.6004 13.5 22.8004 13.5C17.5004 13.5 13.2004 17.8 13.2004 23.1H13.1004C9.40039 23.1 6.40039 26.0999 6.40039 29.7999C6.40039 33.4999 9.40039 36.5 13.1004 36.5C13.7004 36.5 22.2004 36.5 22.2004 36.5V46.5H18.2004L25.6004 53.9L33.0004 46.5H29.0004V35.7999" stroke="#9DE5EC" stroke-width="1.613" stroke-miterlimit="10"/>
</svg>
