<svg width="64" height="64" viewBox="0 0 64 64" fill="none" xmlns="http://www.w3.org/2000/svg">
<path d="M28.3 44.9C28.3 44.9 26.3 44.9 25.8 44.9C25.2 44.9 22.6 44.9 22 44.9C20.2 44.9 18.5 45.5999 18.5 47.0999C18.5 48.1999 19.5 49 20.5 49C21.5 49 22.5 48.1999 22.5 47.0999C22.5 45.5999 21 44.9 18.6 44.9C15.9 44.9 14.5 44.9 13.4 44.9C11.5 44.9 11.6 44.4999 11.6 42.7999C11.6 37.9999 11.6 19.2 11.6 16.9C11.6 15.1 12 14.9 13.3 14.9C15.1 14.9 25.8 14.9 27.8 14.9C29.2 14.9 29.4 15.5 29.4 16.9C29.4 18.1 29.4 19.6 29.4 19.6V21H20.4V39.7H57V35.5999H39.4H57.1V31H24.8H57.1V25H45.3H57.1V21H34V19.8C34 19.8 34 15 34 13.6C34 11.8 34.2 9.69995 31.4 9.69995C27.1 9.69995 12 9.69995 9.4 9.69995C8.2 9.79995 7 10.4 7 11.8C7 15.2 7 48.7 7 52.4C7 53.9 8.1 54.7 9.3 54.7C12.3 54.7 28.1 54.7 31.8 54.7C32.8 54.7 34.1 53.7999 34.1 52.0999C34.1 47.8999 34.1 44 34.1 44" stroke="#F9D3B1" stroke-width="1.5203" stroke-miterlimit="10"/>
</svg>
