<svg width="24" height="22" viewBox="0 0 24 22" fill="none" xmlns="http://www.w3.org/2000/svg">
<rect width="24" height="22" fill="#0846A8"/>
<path fill-rule="evenodd" clip-rule="evenodd" d="M19.75 5.5H4.75C4.3355 5.5 4 5.164 4 4.75C4 4.336 4.3355 4 4.75 4H19.75C20.1645 4 20.5 4.336 20.5 4.75C20.5 5.164 20.1645 5.5 19.75 5.5ZM19.75 12H4.75C4.3355 12 4 11.664 4 11.25C4 10.836 4.3355 10.5 4.75 10.5H19.75C20.1645 10.5 20.5 10.836 20.5 11.25C20.5 11.664 20.1645 12 19.75 12ZM4.75 18H19.75C20.1645 18 20.5 17.664 20.5 17.25C20.5 16.836 20.1645 16.5 19.75 16.5H4.75C4.3355 16.5 4 16.836 4 17.25C4 17.664 4.3355 18 4.75 18Z" fill="white"/>
</svg>
