<?xml version="1.0" encoding="UTF-8"?>
<svg width="130px" height="108px" viewBox="0 0 130 108" version="1.1" xmlns="http://www.w3.org/2000/svg" xmlns:xlink="http://www.w3.org/1999/xlink">
    <title>illustration</title>
    <defs>
        <polygon id="path-1" points="0 0 130 0 130 108 0 108"></polygon>
    </defs>
    <g id="banners" stroke="none" stroke-width="1" fill="none" fill-rule="evenodd">
        <g id="quiz_banner/desktop---option-1" transform="translate(-1058.000000, -11.000000)">
            <g id="illustration" transform="translate(1058.000000, 11.000000)">
                <mask id="mask-2" fill="white">
                    <use xlink:href="#path-1"></use>
                </mask>
                <g id="Clip-2-Copy"></g>
                <path d="M41.5526899,63.1664068 L41.5485759,63.7954448 C41.5485759,63.5868647 41.5493987,63.3766358 41.5526899,63.1664068 L41.5526899,63.1664068 Z M100.780544,56.4290271 L86.8775416,41.7574777 L78.1417139,40.0204171 L78.1417139,47.5294545 L82.5973695,48.4759346 L90.4380845,61.1614275 L77.9212537,51.3050308 L78.1417139,2.05481822 C78.1461378,1.03001896 77.3439281,0.187718187 76.3603364,0.181807304 L43.5471576,2.37219188e-05 C42.5628286,-0.00512435786 41.7525083,0.828310087 41.7480844,1.8523705 L41.5770249,38.2929616 L25.2555966,55.0761739 L11.0915814,95.2457931 L1.20921316,106.609465 L0,108 L32.3088485,108 C32.5130875,107.705195 36.319897,100.734048 36.5241361,100.438503 C50.7316534,86.687574 48.4643787,81.0234707 48.4643787,81.0234707 C48.4643787,81.0234707 52.4606807,79.4962464 62.1255381,78.3554461 C71.7889208,77.213168 73.2938014,72.9588103 73.2938014,72.9588103 L76.0344388,72.5420931 C77.0202424,72.548004 77.829088,71.7153084 77.8342493,70.6897702 L77.8689036,62.6953015 C77.9618066,62.8113026 78.0480736,62.9250871 78.1417139,63.041827 L78.1417139,69.744029 L79.5389449,72.1342422 C80.4465921,73.6895432 80.999586,75.4192152 81.1898158,77.2116903 C81.3984788,79.1755811 82.4934066,82.905348 86.4779114,89.5994225 C93.4257258,101.271199 99.9628502,101.884453 99.9628502,101.884453 L102.823672,108 L130,108 L100.780544,56.4290271 Z" id="Fill-1-Copy" fill="#E2E4E5" mask="url(#mask-2)"></path>
                <path d="M47.7973524,72.8170617 L80.8770693,73 C81.8701373,73.0059168 82.6855531,72.1664781 82.690013,71.1359537 L83,2.06702837 C83.0051782,1.036504 82.1964523,0.18888656 81.2041276,0.182938367 L48.1244107,0 C47.1320861,-0.00591674756 46.3166703,0.832778408 46.3114671,1.8640463 L46,70.9329717 C45.9955585,71.963496 46.8035411,72.8111135 47.7973524,72.8170617" id="Fill-4-Copy" fill="#FFFFFF" mask="url(#mask-2)"></path>
                <path d="M47.5743897,70.8176984 L80.1194303,71 C80.4395024,71.00147 80.6981907,70.7320859 80.6996522,70.3984923 L81,2.79044562 C81.0014553,2.45611403 80.7449592,2.1837777 80.425618,2.18230163 L47.8805774,2 C47.5612361,1.99852996 47.3025477,2.26791413 47.3003555,2.60224572 L47,70.2095544 C46.9978216,70.5431479 47.2550485,70.8154843 47.5743897,70.8176984" id="Fill-6-Copy" fill="#002F6C" mask="url(#mask-2)"></path>
                <path d="M47.5803016,70.8188958 L80.1111054,71 C80.4337335,71.0022129 80.6950844,70.730577 80.6965609,70.3951141 L81,2.79265607 C81.0014703,2.45719315 80.741596,2.18258854 80.4189679,2.18036202 L47.8866876,2 C47.565536,1.99778707 47.3034469,2.26942297 47.3019703,2.60488589 L47,70.2073439 C46.9977992,70.5428069 47.2576736,70.8166693 47.5803016,70.8188958" id="Fill-8-Copy" fill="#005EB8" mask="url(#mask-2)"></path>
                <path d="M72.9195764,15.6063087 C72.9042959,15.683752 72.8777561,15.7604783 72.8753434,15.8372047 C72.8423697,16.6008824 72.8150257,17.3652772 72.7836605,18.128955 C72.7675758,18.5082841 72.8021579,18.4071775 72.5351516,18.6631709 C71.0561614,20.0793808 69.5755628,21.4934395 68.09416,22.9089323 C68.0732498,22.9297273 68.0515354,22.9505223 68.0008686,23 C68.0008686,22.9132347 67.9984559,22.8565863 68.0016728,22.800655 C68.0531439,21.4009377 68.1062235,20.0019374 68.1593031,18.6029371 L68.3595579,13.3102559 C68.3692087,13.0614332 68.3692087,13.0614332 68.6362151,13.0578479 C69.8490031,13.038487 71.0609868,13.0205603 72.2737748,13.0019166 C72.3292671,13.0011995 72.3847594,12.9990483 72.437839,13.0004824 C72.7153004,13.0083702 72.8930366,13.1467644 72.9541585,13.3970212 C72.9613967,13.4278551 72.9847195,13.4536696 73,13.4816353 C72.9718517,14.1900987 72.9453119,14.8985622 72.9195764,15.6063087" id="Fill-10-Copy" fill="#FFFFFF" mask="url(#mask-2)"></path>
                <path d="M57.0225793,19.1811672 C57.078275,19.1803476 57.1347233,19.1787083 57.1911717,19.1778886 C60.3808784,19.1188744 63.5705851,19.0598601 66.7610445,19.0008459 C67.0056539,18.9967477 67.0064066,18.9967477 66.9973748,19.2696886 C66.956732,20.5737395 66.9063049,21.87861 66.8814676,23.1810216 C66.8716832,23.6949374 66.609763,23.9129622 66.2191406,23.9162408 C64.6686932,23.931814 63.1197512,23.9670586 61.5700565,23.9998443 C61.4225382,24.0031229 61.3194259,23.954764 61.215561,23.8416533 C59.8660697,22.35974 58.5120625,20.8835643 57.1595606,19.4049295 C57.1046176,19.3459153 57.0519325,19.2836225 57,19.222969 L57.0225793,19.1811672 Z" id="Fill-12-Copy" fill="#FFFFFF" mask="url(#mask-2)"></path>
                <path d="M62,9.03091939 C61.9975795,9.08556761 61.9959658,9.13949678 61.9935453,9.19486405 C61.8741339,12.365899 61.7539157,15.536934 61.6336974,18.707969 C61.6248222,18.9395049 61.6240154,18.9395049 61.3730901,18.9438192 C60.1329864,18.9625146 58.8920759,18.9812101 57.6503585,18.9991865 C57.565641,19.0006246 57.4776961,19.0020627 57.3978195,18.9855244 C57.1614172,18.9359096 57.0145734,18.7482361 57.0008573,18.4922523 C56.9984368,18.4476709 57.0016641,18.4023704 57.0040846,18.3577889 C57.0613698,16.8247625 57.1218823,15.2924551 57.1751334,13.7608668 C57.1799744,13.6184938 57.2332254,13.5199832 57.3405343,13.4178773 C58.6645487,12.1602491 59.9853358,10.8990257 61.305316,9.63852133 C61.4747511,9.47673383 61.6441863,9.31494633 61.8112009,9.15100167 C61.8571904,9.10498211 61.8943048,9.05105294 61.9354533,9 C61.9572378,9.01078583 61.9782155,9.02013356 62,9.03091939" id="Fill-14-Copy" fill="#FFFFFF" mask="url(#mask-2)"></path>
                <path d="M72,12.8185312 C71.9008637,12.8201712 71.8452873,12.8209913 71.7882089,12.8226313 C68.6113422,12.8816719 65.4337245,12.9407125 62.2568578,12.998933 C61.9947475,13.0038531 61.9939965,13.0038531 62.0022578,12.7127502 C62.0420625,11.4269773 62.0826183,10.1420245 62.121672,8.85707169 C62.1254271,8.78655098 62.1269292,8.71603028 62.1329375,8.64550957 C62.1607257,8.33062643 62.3665085,8.11004423 62.6466436,8.09282406 C62.6969627,8.09036403 62.7480329,8.09036403 62.7983521,8.08872402 C64.3334621,8.06084374 65.8685722,8.03460348 67.4029312,8.00016313 C67.5561418,7.9968831 67.6657925,8.04280356 67.7724391,8.16170474 C69.0063852,9.52291833 70.2448375,10.8792119 71.4832898,12.2363254 C71.6177246,12.3847469 71.7536614,12.5307084 71.8895982,12.6783098 C71.9203906,12.7119302 71.9459257,12.7504706 72,12.8185312" id="Fill-16-Copy" fill="#FFFFFF" mask="url(#mask-2)"></path>
                <path d="M134,108 L106.864001,108 L104.006031,101.879046 C104.006031,101.879046 101.154686,101.611245 97.2196382,98.0528944 C97.2196382,98.0528944 97.2196382,98.0462364 97.2130123,98.0462364 C95.1965306,96.2234141 92.8958715,93.5394859 90.5422051,89.5794341 C86.6417596,83.003514 85.5116759,79.2875902 85.2738797,77.2901794 C85.0301939,75.2513409 84.3175417,73.3012761 83.2861102,71.5302386 L81.9182303,69.4159423 L81.9469425,62.7482893 C77.0607106,56.6961346 75.4682864,51.9097466 78.6494538,48.5896061 L94.4949216,61.105234 L86.6704719,48.4031811 L82.0168826,47.4133531 L82.0455948,40 L90.9427039,41.6770853 L104.823961,56.3647124 L134,108 Z" id="Fill-20-Copy" fill="#D7A179" mask="url(#mask-2)"></path>
                <path d="M77,72.3923302 C77,72.3923302 75.4967608,77.0837785 65.8773515,78.2330832 C58.176096,79.1508946 54.0886365,80.3128127 52.7587067,80.7401849 L52.5677726,80.8039939 L52.3136833,80.8908039 L52.2681528,80.909353 C52.2681528,80.909353 54.527785,86.598745 40.3810333,100.401531 L40.3758928,100.406724 C40.1739432,100.704253 36.3802286,107.708408 36.1775446,108 L4,108 L5.20141641,106.604363 L15.0477436,95.1966421 L29.1541054,54.8515221 L31.8543549,52.0535699 L31.8543549,52.0476342 L45.4106794,38 L45.3820393,45.3365556 L53.5114279,39.9276266 C54.3258355,39.4134444 55.3789107,39.9862418 55.4126914,40.9552489 C55.5221113,44.2443823 53.3263686,51.8844018 46.3477255,54.7580344 C44.7233165,60.2485797 45.2843692,66.6799373 45.7286582,69.874841 C45.7411424,69.9453277 45.7580327,70.0210082 45.7697825,70.091495 C46.0128564,71.1421182 46.9366839,71.9070847 48.0235398,71.9256339 L77,72.3923302 Z" id="Fill-22-Copy" fill="#D7A179" mask="url(#mask-2)"></path>
                <path d="M78,72.2773004 L53.5064675,80.5397665 L53.3135466,80.6029228 L53.0568134,80.6888448 L53.0108092,80.7072042 C53.0108092,80.7072042 55.2939537,86.3384005 41,100 C41.215923,99.6004994 49.3067282,84.7080855 46.444821,70 C46.6904241,71.0398766 47.6238644,71.7970184 48.7220295,71.8153778 L78,72.2773004 Z" id="Fill-24-Copy" fill="#B4875E" mask="url(#mask-2)"></path>
                <polygon id="Fill-26-Copy" fill="#B4875E" mask="url(#mask-2)" points="46 38 45.9696658 45.3085898 32 52 32 51.994826"></polygon>
                <path d="M97,98 C95.0216606,96.1926019 92.766065,93.5306507 90.4570397,89.6033742 C86.632491,83.0838311 85.5227437,79.4000838 85.2902527,77.4195746 C85.0512635,75.3979881 84.3516245,73.4629571 83.3407942,71.7076391 L82,69.6119669 L82.0281588,63 C82.0281588,63 89.9227437,72.7301687 90.6057762,76.8936393 C91.2873646,81.0578434 90.3552347,88.8823221 97,98" id="Fill-28-Copy" fill="#B4875E" mask="url(#mask-2)"></path>
                <polygon id="Fill-30-Copy" fill="#B4875E" mask="url(#mask-2)" points="87 48 82 47.0570423 82.0316356 40"></polygon>
            </g>
        </g>
    </g>
</svg>